<svg width="25" height="20" viewBox="0 0 25 20" fill="none" xmlns="http://www.w3.org/2000/svg">
<mask id="path-1-outside-1_48_33" maskUnits="userSpaceOnUse" x="-4.37925" y="-5.12203" width="29.1374" height="28.5397" fill="black">
<rect fill="white" x="-4.37925" y="-5.12203" width="29.1374" height="28.5397"/>
<path fill-rule="evenodd" clip-rule="evenodd" d="M13.4163 7.39196L13.1669 6.7067C13.0904 6.49666 13.0812 6.27652 13.1286 6.06584C13.2357 5.63845 13.5757 5.25405 14.059 5.07815C14.7904 4.81196 15.5774 5.12238 15.8131 5.77001L16.3832 7.33627C16.619 7.98393 16.2156 8.72761 15.4842 8.9938C15.4497 9.00636 15.415 9.01764 15.3803 9.02766C14.6847 9.22076 13.9688 8.9099 13.7459 8.29746L13.4163 7.39196L13.4163 7.39196ZM15.5706 9.84052C14.9105 10.0238 14.2394 9.93485 13.7157 9.63569C13.4857 10.2586 12.9551 10.8012 12.2326 11.0642C11.0139 11.5077 9.70176 10.9902 9.30899 9.91108L6.48914 2.1636C6.26424 1.54571 5.59585 1.18414 4.93601 1.32231C4.5193 1.41013 4.16557 1.64353 3.94664 1.9804C3.73101 2.31253 3.67891 2.70043 3.80461 3.04579L7.98779 14.539L4.15483 13.4987C3.42773 13.2401 2.5958 13.5713 2.26976 14.2247C1.94225 14.8796 2.2413 15.6159 2.9368 15.8648L10.6348 18.7407L22.9136 14.2716L20.4947 7.62403C20.215 7.99859 19.8127 8.3065 19.3217 8.48519C18.5992 8.74817 17.844 8.67364 17.2674 8.34427C17.0374 8.9672 16.5067 9.50977 15.7842 9.77275C15.7132 9.79857 15.642 9.82113 15.5706 9.84052ZM19.9858 6.22552C20.0951 6.82507 19.7015 7.46012 19.0376 7.70174C18.3062 7.96795 17.5192 7.65755 17.2835 7.00989L16.9539 6.10438L16.9539 6.10439L16.7045 5.41912C16.4687 4.77147 16.8721 4.02781 17.6035 3.7616C18.3348 3.49541 19.1219 3.8058 19.3576 4.45345L19.5713 5.04062L19.5564 5.0455L19.9858 6.22552ZM20.4905 4.81715L20.2411 4.13189C19.8483 3.05275 18.5362 2.53524 17.3175 2.97881C16.595 3.24179 16.0644 3.78434 15.8344 4.40728C15.2578 4.07791 14.5025 4.00339 13.78 4.26637C13.0477 4.53291 12.5126 5.08699 12.2874 5.72095C11.7112 5.3931 10.9574 5.31932 10.2361 5.58183C9.73912 5.76273 9.33255 6.07654 9.05236 6.45702L7.37264 1.84203C7.0095 0.844324 5.90216 0.267373 4.79621 0.497852C4.11549 0.64185 3.51508 1.03953 3.15665 1.59303C2.79709 2.14604 2.71102 2.79286 2.92052 3.36846L6.51197 13.2359L4.51657 12.6957C3.35922 12.2841 1.97347 12.8355 1.42861 13.9252C0.88342 15.0166 1.38236 16.2416 2.53382 16.6535L10.5625 19.6538L24.083 14.7328L20.8876 5.95346C20.8703 5.87595 20.8479 5.7989 20.8201 5.72265L20.4906 4.81714L20.4905 4.81715ZM10.5214 6.36572C9.79008 6.63191 9.3867 7.37563 9.62242 8.02325L10.1925 9.58952C10.4282 10.2372 11.2153 10.5476 11.9466 10.2814C12.678 10.0152 13.0814 9.2715 12.8457 8.62385L12.2756 7.05758C12.0399 6.40995 11.2528 6.09951 10.5214 6.36572Z"/>
</mask>
<path fill-rule="evenodd" clip-rule="evenodd" d="M13.4163 7.39196L13.1669 6.7067C13.0904 6.49666 13.0812 6.27652 13.1286 6.06584C13.2357 5.63845 13.5757 5.25405 14.059 5.07815C14.7904 4.81196 15.5774 5.12238 15.8131 5.77001L16.3832 7.33627C16.619 7.98393 16.2156 8.72761 15.4842 8.9938C15.4497 9.00636 15.415 9.01764 15.3803 9.02766C14.6847 9.22076 13.9688 8.9099 13.7459 8.29746L13.4163 7.39196L13.4163 7.39196ZM15.5706 9.84052C14.9105 10.0238 14.2394 9.93485 13.7157 9.63569C13.4857 10.2586 12.9551 10.8012 12.2326 11.0642C11.0139 11.5077 9.70176 10.9902 9.30899 9.91108L6.48914 2.1636C6.26424 1.54571 5.59585 1.18414 4.93601 1.32231C4.5193 1.41013 4.16557 1.64353 3.94664 1.9804C3.73101 2.31253 3.67891 2.70043 3.80461 3.04579L7.98779 14.539L4.15483 13.4987C3.42773 13.2401 2.5958 13.5713 2.26976 14.2247C1.94225 14.8796 2.2413 15.6159 2.9368 15.8648L10.6348 18.7407L22.9136 14.2716L20.4947 7.62403C20.215 7.99859 19.8127 8.3065 19.3217 8.48519C18.5992 8.74817 17.844 8.67364 17.2674 8.34427C17.0374 8.9672 16.5067 9.50977 15.7842 9.77275C15.7132 9.79857 15.642 9.82113 15.5706 9.84052ZM19.9858 6.22552C20.0951 6.82507 19.7015 7.46012 19.0376 7.70174C18.3062 7.96795 17.5192 7.65755 17.2835 7.00989L16.9539 6.10438L16.9539 6.10439L16.7045 5.41912C16.4687 4.77147 16.8721 4.02781 17.6035 3.7616C18.3348 3.49541 19.1219 3.8058 19.3576 4.45345L19.5713 5.04062L19.5564 5.0455L19.9858 6.22552ZM20.4905 4.81715L20.2411 4.13189C19.8483 3.05275 18.5362 2.53524 17.3175 2.97881C16.595 3.24179 16.0644 3.78434 15.8344 4.40728C15.2578 4.07791 14.5025 4.00339 13.78 4.26637C13.0477 4.53291 12.5126 5.08699 12.2874 5.72095C11.7112 5.3931 10.9574 5.31932 10.2361 5.58183C9.73912 5.76273 9.33255 6.07654 9.05236 6.45702L7.37264 1.84203C7.0095 0.844324 5.90216 0.267373 4.79621 0.497852C4.11549 0.64185 3.51508 1.03953 3.15665 1.59303C2.79709 2.14604 2.71102 2.79286 2.92052 3.36846L6.51197 13.2359L4.51657 12.6957C3.35922 12.2841 1.97347 12.8355 1.42861 13.9252C0.88342 15.0166 1.38236 16.2416 2.53382 16.6535L10.5625 19.6538L24.083 14.7328L20.8876 5.95346C20.8703 5.87595 20.8479 5.7989 20.8201 5.72265L20.4906 4.81714L20.4905 4.81715ZM10.5214 6.36572C9.79008 6.63191 9.3867 7.37563 9.62242 8.02325L10.1925 9.58952C10.4282 10.2372 11.2153 10.5476 11.9466 10.2814C12.678 10.0152 13.0814 9.2715 12.8457 8.62385L12.2756 7.05758C12.0399 6.40995 11.2528 6.09951 10.5214 6.36572Z" fill="white"/>
<path d="M13.4163 7.39196L13.1344 7.49457L13.237 7.77648L13.5189 7.67387L13.4163 7.39196ZM13.1286 6.06584L12.8375 5.99291L12.8359 6.00002L13.1286 6.06584ZM15.3803 9.02766L15.4606 9.31675L15.4636 9.31589L15.3803 9.02766ZM13.7459 8.29746L13.464 8.40006L13.7459 8.29746ZM13.4163 7.39196L13.6982 7.28935L13.5956 7.00744L13.3137 7.11005L13.4163 7.39196ZM13.7157 9.63569L13.8645 9.3752L13.5569 9.1995L13.4343 9.53179L13.7157 9.63569ZM15.5706 9.84052L15.492 9.551L15.4903 9.55145L15.5706 9.84052ZM9.30899 9.91108L9.5909 9.80848L9.30899 9.91108ZM6.48914 2.1636L6.20723 2.2662L6.48914 2.1636ZM4.93601 1.32231L4.87452 1.02868L4.87415 1.02876L4.93601 1.32231ZM3.94664 1.9804L3.69509 1.81692L3.69502 1.81704L3.94664 1.9804ZM7.98779 14.539L7.90921 14.8285L8.46758 14.9801L8.2697 14.4364L7.98779 14.539ZM4.15483 13.4987L4.05431 13.7814L4.06515 13.7852L4.07625 13.7882L4.15483 13.4987ZM2.26976 14.2247L2.53808 14.3589L2.53821 14.3586L2.26976 14.2247ZM2.9368 15.8648L3.0418 15.5837L3.03787 15.5823L2.9368 15.8648ZM10.6348 18.7407L10.5298 19.0217L10.6335 19.0604L10.7374 19.0226L10.6348 18.7407ZM22.9136 14.2716L23.0162 14.5535L23.2981 14.4509L23.1955 14.169L22.9136 14.2716ZM20.4947 7.62403L20.7766 7.52144L20.5867 6.99949L20.2543 7.44452L20.4947 7.62403ZM17.2674 8.34427L17.4162 8.08377L17.1086 7.90808L16.9859 8.24037L17.2674 8.34427ZM19.9858 6.22552L20.2809 6.17172L20.2764 6.14677L20.2677 6.12294L19.9858 6.22552ZM16.9539 6.10438L17.2358 6.00178L17.1332 5.71987L16.8513 5.82248L16.9539 6.10438ZM16.9539 6.10439L16.672 6.207L16.7746 6.48891L17.0565 6.3863L16.9539 6.10439ZM16.7045 5.41912L16.4225 5.52173L16.7045 5.41912ZM19.5713 5.04062L19.6646 5.32574L19.9593 5.22933L19.8532 4.93801L19.5713 5.04062ZM19.5564 5.0455L19.4631 4.76037L19.1685 4.85678L19.2745 5.14808L19.5564 5.0455ZM20.4905 4.81715L20.2086 4.91976L20.3112 5.20167L20.5931 5.09906L20.4905 4.81715ZM15.8344 4.40728L15.6856 4.66777L15.9932 4.84347L16.1158 4.51118L15.8344 4.40728ZM12.2874 5.72095L12.139 5.98169L12.4502 6.15876L12.5701 5.82138L12.2874 5.72095ZM9.05236 6.45702L8.77045 6.55962L8.96193 7.08572L9.29392 6.63491L9.05236 6.45702ZM7.37264 1.84203L7.65455 1.73942L7.37264 1.84203ZM4.79621 0.497852L4.735 0.20416L4.73412 0.204347L4.79621 0.497852ZM3.15665 1.59303L3.40816 1.75655L3.40846 1.7561L3.15665 1.59303ZM6.51197 13.2359L6.43357 13.5254L6.9916 13.6765L6.79387 13.1333L6.51197 13.2359ZM4.51657 12.6957L4.41606 12.9783L4.42698 12.9822L4.43817 12.9853L4.51657 12.6957ZM1.42861 13.9252L1.16028 13.791L1.16022 13.7911L1.42861 13.9252ZM2.53382 16.6535L2.63885 16.3725L2.63486 16.3711L2.53382 16.6535ZM10.5625 19.6538L10.4575 19.9349L10.5612 19.9736L10.6651 19.9358L10.5625 19.6538ZM24.083 14.7328L24.1856 15.0147L24.4675 14.9121L24.3649 14.6302L24.083 14.7328ZM20.8876 5.95346L20.5948 6.01881L20.5991 6.03779L20.6057 6.05607L20.8876 5.95346ZM20.4906 4.81714L20.7725 4.71454L20.6699 4.43263L20.3879 4.53524L20.4906 4.81714ZM13.6982 7.28936L13.4488 6.60409L12.885 6.8093L13.1344 7.49457L13.6982 7.28936ZM13.4488 6.60409C13.3932 6.4514 13.3857 6.28995 13.4213 6.13166L12.8359 6.00002C12.7767 6.26308 12.7876 6.54192 12.885 6.8093L13.4488 6.60409ZM13.4196 6.13875C13.501 5.81377 13.7662 5.50399 14.1616 5.36006L13.9564 4.79624C13.3853 5.00412 12.9703 5.46312 12.8376 5.99293L13.4196 6.13875ZM14.1616 5.36006C14.7705 5.13845 15.3636 5.41192 15.5312 5.87261L16.0951 5.6674C15.7913 4.83284 14.8103 4.48546 13.9564 4.79624L14.1616 5.36006ZM15.5312 5.87261L16.1013 7.43888L16.6651 7.23367L16.0951 5.6674L15.5312 5.87261ZM16.1013 7.43888C16.269 7.8996 15.9905 8.49028 15.3816 8.71189L15.5868 9.27571C16.4407 8.96493 16.9689 8.06827 16.6651 7.23367L16.1013 7.43888ZM15.3816 8.71189C15.3535 8.72213 15.3253 8.7313 15.2971 8.73944L15.4636 9.31589C15.5048 9.30398 15.5459 9.2906 15.5868 9.27571L15.3816 8.71189ZM15.3001 8.73859C14.7237 8.8986 14.1866 8.63117 14.0278 8.19485L13.464 8.40006C13.751 9.18864 14.6457 9.54292 15.4606 9.31673L15.3001 8.73859ZM14.0278 8.19485L13.6982 7.28935L13.1344 7.49456L13.464 8.40006L14.0278 8.19485ZM13.3137 7.11005L13.3137 7.11006L13.5189 7.67387L13.5189 7.67386L13.3137 7.11005ZM13.5669 9.89618C14.1632 10.2368 14.9172 10.3333 15.6508 10.1296L15.4903 9.55145C14.9038 9.71427 14.3156 9.63289 13.8645 9.3752L13.5669 9.89618ZM12.3352 11.3461C13.1371 11.0542 13.7353 10.4487 13.9971 9.73959L13.4343 9.53179C13.2361 10.0685 12.7731 10.5481 12.13 10.7822L12.3352 11.3461ZM9.02708 10.0137C9.4879 11.2798 10.994 11.8342 12.3352 11.3461L12.13 10.7822C11.0337 11.1812 9.91563 10.7007 9.5909 9.80848L9.02708 10.0137ZM6.20723 2.2662L9.02708 10.0137L9.5909 9.80848L6.77104 2.06099L6.20723 2.2662ZM4.99749 1.61594C5.51723 1.50711 6.03542 1.79416 6.20723 2.2662L6.77104 2.06099C6.49307 1.29726 5.67446 0.861174 4.87452 1.02868L4.99749 1.61594ZM4.19819 2.14388C4.37018 1.87923 4.65263 1.68862 4.99787 1.61586L4.87415 1.02876C4.38596 1.13164 3.96096 1.40782 3.69509 1.81692L4.19819 2.14388ZM4.08652 2.94318C3.99593 2.69431 4.02909 2.40432 4.19826 2.14376L3.69502 1.81704C3.43292 2.22074 3.36188 2.70655 3.5227 3.1484L4.08652 2.94318ZM8.2697 14.4364L4.08652 2.94318L3.5227 3.1484L7.70588 14.6416L8.2697 14.4364ZM4.07625 13.7882L7.90921 14.8285L8.06637 14.2495L4.23341 13.2092L4.07625 13.7882ZM2.53821 14.3586C2.79366 13.8466 3.46399 13.5714 4.05431 13.7814L4.25535 13.216C3.39148 12.9088 2.39793 13.2959 2.00132 14.0908L2.53821 14.3586ZM3.03787 15.5823C2.50929 15.3932 2.29224 14.8505 2.53808 14.3589L2.00145 14.0905C1.59227 14.9087 1.97331 15.8387 2.83574 16.1472L3.03787 15.5823ZM10.7398 18.4597L3.04179 15.5837L2.83181 16.1458L10.5298 19.0217L10.7398 18.4597ZM22.811 13.9897L10.5322 18.4588L10.7374 19.0226L23.0162 14.5535L22.811 13.9897ZM20.2128 7.72661L22.6317 14.3741L23.1955 14.169L20.7766 7.52144L20.2128 7.72661ZM19.4243 8.7671C19.9699 8.56853 20.4202 8.22518 20.7351 7.80354L20.2543 7.44452C20.0098 7.77201 19.6554 8.04447 19.2191 8.20328L19.4243 8.7671ZM17.1186 8.60476C17.7749 8.97971 18.6224 9.05896 19.4243 8.7671L19.2191 8.20328C18.5759 8.43738 17.913 8.36757 17.4162 8.08377L17.1186 8.60476ZM15.8868 10.0547C16.6887 9.7628 17.287 9.1573 17.5488 8.44817L16.9859 8.24037C16.7878 8.7771 16.3248 9.25674 15.6816 9.49084L15.8868 10.0547ZM15.6492 10.13C15.7287 10.1085 15.8079 10.0834 15.8868 10.0547L15.6816 9.49084C15.6185 9.51378 15.5553 9.53381 15.492 9.55101L15.6492 10.13ZM19.6907 6.27933C19.7696 6.71223 19.4844 7.21987 18.935 7.41984L19.1402 7.98365C19.9185 7.70036 20.4206 6.93791 20.2809 6.17172L19.6907 6.27933ZM18.935 7.41984C18.3261 7.64146 17.7331 7.368 17.5654 6.90728L17.0016 7.11249C17.3053 7.94709 18.2863 8.29444 19.1402 7.98365L18.935 7.41984ZM17.5654 6.90728L17.2358 6.00178L16.672 6.20699L17.0016 7.11249L17.5654 6.90728ZM16.8513 5.82248L16.8513 5.82248L17.0565 6.3863L17.0565 6.38629L16.8513 5.82248ZM17.2358 6.00179L16.9864 5.31652L16.4225 5.52173L16.672 6.207L17.2358 6.00179ZM16.9864 5.31652C16.8187 4.8558 17.0972 4.26513 17.7061 4.04351L17.5009 3.47969C16.647 3.79048 16.1188 4.68714 16.4225 5.52173L16.9864 5.31652ZM17.7061 4.04351C18.315 3.8219 18.908 4.09534 19.0757 4.55606L19.6395 4.35085C19.3357 3.51625 18.3547 3.16891 17.5009 3.47969L17.7061 4.04351ZM19.0757 4.55606L19.2894 5.14322L19.8532 4.93801L19.6395 4.35085L19.0757 4.55606ZM19.478 4.75549L19.4631 4.76037L19.6497 5.33062L19.6646 5.32574L19.478 4.75549ZM19.2745 5.14808L19.7039 6.32811L20.2677 6.12294L19.8383 4.94291L19.2745 5.14808ZM19.9592 4.23449L20.2086 4.91976L20.7724 4.71455L20.523 4.02928L19.9592 4.23449ZM17.4201 3.26072C18.5164 2.86173 19.6345 3.34229 19.9592 4.23449L20.523 4.02928C20.0622 2.7632 18.5561 2.20875 17.2149 2.69691L17.4201 3.26072ZM16.1158 4.51118C16.314 3.97444 16.777 3.49482 17.4201 3.26072L17.2149 2.69691C16.413 2.98877 15.8148 3.59425 15.553 4.30338L16.1158 4.51118ZM13.8826 4.54828C14.5258 4.31418 15.1888 4.38398 15.6856 4.66777L15.9832 4.14679C15.3268 3.77184 14.4793 3.6926 13.6774 3.98446L13.8826 4.54828ZM12.5701 5.82138C12.7641 5.27528 13.2308 4.78552 13.8826 4.54828L13.6774 3.98446C12.8646 4.2803 12.2611 4.89869 12.0047 5.62052L12.5701 5.82138ZM10.3387 5.86374C10.9808 5.63006 11.6425 5.69918 12.139 5.98169L12.4357 5.4602C11.7799 5.08702 10.934 5.00858 10.1335 5.29993L10.3387 5.86374ZM9.29392 6.63491C9.53892 6.30223 9.89706 6.0245 10.3387 5.86374L10.1335 5.29993C9.58118 5.50096 9.12619 5.85085 8.81079 6.27912L9.29392 6.63491ZM7.09073 1.94464L8.77045 6.55962L9.33426 6.35441L7.65455 1.73942L7.09073 1.94464ZM4.85741 0.791542C5.83183 0.588475 6.78347 1.10046 7.09073 1.94464L7.65455 1.73942C7.23553 0.58819 5.97249 -0.0537291 4.735 0.204161L4.85741 0.791542ZM3.40846 1.7561C3.72018 1.27473 4.24943 0.920156 4.8583 0.791357L4.73412 0.204347C3.98155 0.363543 3.30999 0.804322 2.90484 1.42996L3.40846 1.7561ZM3.20243 3.26585C3.02794 2.78645 3.09538 2.23763 3.40816 1.75655L2.90513 1.4295C2.49881 2.05446 2.3941 2.79927 2.63861 3.47107L3.20243 3.26585ZM6.79387 13.1333L3.20243 3.26585L2.63861 3.47107L6.23006 13.3385L6.79387 13.1333ZM4.43817 12.9853L6.43357 13.5254L6.59036 12.9463L4.59496 12.4061L4.43817 12.9853ZM1.69693 14.0593C2.17308 13.1071 3.39955 12.6169 4.41606 12.9783L4.61708 12.413C3.31889 11.9514 1.77386 12.564 1.16028 13.791L1.69693 14.0593ZM2.63486 16.3711C1.65082 16.0191 1.23312 14.9879 1.69699 14.0592L1.16022 13.7911C0.533723 15.0454 1.1139 16.4642 2.43278 16.936L2.63486 16.3711ZM10.6675 19.3728L2.63884 16.3725L2.42881 16.9345L10.4575 19.9349L10.6675 19.3728ZM23.9804 14.4509L10.4599 19.3719L10.6651 19.9358L24.1856 15.0147L23.9804 14.4509ZM20.6057 6.05607L23.8011 14.8354L24.3649 14.6302L21.1695 5.85086L20.6057 6.05607ZM21.1804 5.88812C21.1603 5.79802 21.1342 5.70852 21.102 5.62004L20.5382 5.82525C20.5615 5.88927 20.5803 5.95387 20.5948 6.01881L21.1804 5.88812ZM21.102 5.62004L20.7725 4.71454L20.2086 4.91975L20.5382 5.82525L21.102 5.62004ZM20.3879 4.53524L20.3879 4.53525L20.5931 5.09906L20.5932 5.09905L20.3879 4.53524ZM9.90433 7.92064C9.73665 7.45995 10.0152 6.86924 10.6241 6.64763L10.4188 6.08381C9.56498 6.39459 9.03676 7.2913 9.34051 8.12585L9.90433 7.92064ZM10.4744 9.48691L9.90433 7.92064L9.34051 8.12585L9.91058 9.69212L10.4744 9.48691ZM11.844 9.99946C11.2351 10.2211 10.6421 9.94763 10.4744 9.48691L9.91058 9.69212C10.2144 10.5267 11.1954 10.8741 12.0492 10.5633L11.844 9.99946ZM12.5637 8.72645C12.7314 9.18717 12.4529 9.77784 11.844 9.99946L12.0492 10.5633C12.9031 10.2525 13.4313 9.35583 13.1276 8.52124L12.5637 8.72645ZM11.9937 7.16018L12.5637 8.72645L13.1276 8.52124L12.5575 6.95497L11.9937 7.16018ZM10.6241 6.64763C11.2329 6.42601 11.826 6.69949 11.9937 7.16018L12.5575 6.95497C12.2537 6.12042 11.2727 5.77302 10.4188 6.08381L10.6241 6.64763Z" fill="white" mask="url(#path-1-outside-1_48_33)"/>
</svg>
